# AST/ASF file generated using VICON BodyLanguage
# -----------------------------------------------
:version 1.10
:name VICON
:units
  mass 1.0
  length 0.45
  angle deg
:documentation
   .ast/.asf automatically generated from VICON data using
   VICON BodyBuilder and BodyLanguage model FoxedUp or BRILLIANT.MOD
:root
   order TX TY TZ RX RY RZ
   axis XYZ
   position 0 0 0  
   orientation 0 0 0 
:bonedata
  begin
     id 1 
     name lhipjoint
     direction 0.602128 -0.715006 0.355257 
     length 2.21237 
     axis 0 0 0  XYZ
  end
  begin
     id 2 
     name lfemur
     direction 0.34202 -0.939693 0  
     length 6.71649  
     axis 0 0 20  XYZ
    dof rx ry rz
    limits (-160.0 20.0)
           (-70.0 70.0)
           (-60.0 70.0)
  end
  begin
     id 3 
     name ltibia
     direction 0.34202 -0.939693 0   
     length 6.97123   
     axis 0 0 20   XYZ
    dof rx
    limits (-10.0 170.0)
  end
  begin
     id 4 
     name lfoot
     direction 0.0655697 -0.180151 0.981451   
     length 1.80924   
     axis -90 7.62852e-016 20   XYZ
    dof rx rz
    limits (-45.0 90.0)
           (-70.0 20.0)
  end
  begin
     id 5 
     name ltoes
     direction 1.53545e-011 -4.21827e-011 1   
     length 0.916331   
     axis -90 7.62852e-016 20   XYZ
    dof rx
    limits (-90.0 20.0)
  end
  begin
     id 6 
     name rhipjoint
     direction -0.625414 -0.698792 0.347201   
     length 2.2637  
     axis 0 0 0  XYZ 
  end
  begin
     id 7 
     name rfemur
     direction -0.34202 -0.939693 0   
     length 7.07595   
     axis 0 0 -20   XYZ
    dof rx ry rz
    limits (-160.0 20.0)
           (-70.0 70.0)
           (-70.0 60.0)
  end
  begin
     id 8 
     name rtibia
     direction -0.34202 -0.939693 0   
     length 7.22924   
     axis 0 0 -20   XYZ
    dof rx
    limits (-10.0 170.0)
 end
 begin
     id 9 
     name rfoot
     direction -0.0766747 -0.210662 0.974547   
     length 1.98482  
     axis -90 -7.62852e-016 -20   XYZ
    dof rx rz
    limits (-45.0 90.0)
           (-20.0 70.0)
  end
  begin
     id 10 
     name rtoes
     direction -1.53532e-011 -4.21867e-011 1   
     length 0.999842   
     axis -90 -7.62852e-016 -20   XYZ
    dof rx
    limits (-90.0 20.0)
  end
  begin
     id 11 
     name lowerback
     direction -0.0224668 0.997354 -0.0691422   
     length 2.09945   
     axis 0 0 0   XYZ
    dof rx ry rz
    limits (-20.0 45.0)
           (-30.0 30.0)
           (-30.0 30.0)
  end
  begin
     id 12 
     name upperback
     direction 0.0134698 0.998451 -0.0539888   
     length 2.09758   
     axis 0 0 0   XYZ
    dof rx ry rz
    limits (-20.0 45.0)
           (-30.0 30.0)
           (-30.0 30.0)
  end
  begin
     id 13 
     name thorax
     direction 0.0241905 0.99948 -0.0213333   
     length 2.10428   
     axis 0 0 0   XYZ
    dof rx ry rz
    limits (-20.0 45.0)
           (-30.0 30.0)
           (-30.0 30.0)
  end
  begin
     id 14 
     name lowerneck
     direction -0.00866847 0.995978 0.0891737   
     length 1.3959   
     axis 0 0 0   XYZ
    dof rx ry rz
    limits (-20.0 45.0)
           (-30.0 30.0)
           (-30.0 30.0)
  end
  begin
     id 15 
     name upperneck
     direction 0.0680679 0.992203 0.104404   
     length 1.39452   
     axis 0 0 0   XYZ
    dof rx ry rz
    limits (-20.0 45.0)
           (-30.0 30.0)
           (-30.0 30.0)
  end
  begin
     id 16
     name head
     direction 0.0242216 0.999358 0.0264054  
     length 1.40433  
     axis 0 0 0   XYZ
    dof rx ry rz
    limits (-20.0 45.0)
           (-30.0 30.0)
           (-30.0 30.0)
  end
  begin
     id 17 
     name lclavicle
     direction 0.929368 0.362991 -0.0671771  
     length 3.04887  
     axis 0 0 0   XYZ
    dof ry rz
    limits (-20.0 10.0)
           (0.0 20.0)
  end
  begin
     id 18 
     name lhumerus
     direction 1 -4.48967e-011 -7.13741e-028   
     length 4.77195   
     axis -180 -30 -90   XYZ
    dof rx ry rz
    limits (-60.0 90.0)
           (-90.0 90.0)
           (-90.0 90.0)
  end
  begin
     id 19
     name lradius
     direction 1 -4.48977e-011 3.60404e-027   
     length 2.98444   
     axis -180 -30 -90   XYZ
    dof rx
    limits (-10.0 170.0)
  end
  begin
     id 20
     name lwrist
     direction 1 -4.48997e-011 7.54877e-027   
     length 1.49222   
     axis -7.18178e-015 90 90   XYZ
    dof ry
    limits (-180.0 0.0)
 end
  begin
     id 21 
     name lhand
     direction 1 -4.489e-011 1.51105e-026   
     length 0.992285   
     axis -9.63605e-015 90 90   XYZ
    dof rx rz
    limits (-90.0 90.0)
           (-45.0 45.0)
  end
  begin
     id 22 
     name lfingers
     direction 1 -4.48998e-011 3.01948e-026   
     length 0.800006   
     axis -1.92718e-014 90 90   XYZ
    dof rx
    limits (0.0 90.0)
  end
  begin
     id 23
     name lthumb
     direction 0.707107 -6.34881e-011 0.707107   
     length 1.14865   
     axis -90 45 -3.53137e-014   XYZ
    dof rx rz
    limits (-45.0 45.0)
           (-45.0 45.0)
  end
  begin
     id 24 
     name rclavicle
     direction -0.945672 0.324529 0.0196374   
     length 3.4236  
     axis 0 0 0   XYZ 
    dof ry rz
    limits (-10.0 20.0)
           (-20.0 0.0)
  end
  begin
     id 25 
     name rhumerus
     direction -1 -4.4896e-011 1.02757e-029  
     length 4.62052   
     axis -180 30 90   XYZ
    dof rx ry rz
    limits (-90.0 60.0)
           (-90.0 90.0)
           (-90.0 90.0)
  end
  begin
     id 26 
     name rradius
     direction -1 -4.48982e-011 3.85962e-027   
     length 2.95332   
     axis -180 30 90   XYZ
    dof rx
    limits (-10.0 170.0)
  end
  begin
     id 27 
     name rwrist
     direction -1 -4.48961e-011 7.55118e-027   
     length 1.47666   
     axis -7.18178e-015 -90 -90   XYZ
    dof ry
    limits (-180.0 0.0)
  end
  begin
     id 28
     name rhand
     direction -1 -4.48984e-011 1.50994e-026   
     length 0.990956   
     axis -9.63605e-015 -90 -90   XYZ
    dof rx rz
    limits (-90.0 90.0)
           (-45.0 45.0)
  end
  begin
     id 29
     name rfingers
     direction -1 -4.4892e-011 3.02158e-026   
     length 0.798934   
     axis -1.92718e-014 -90 -90   XYZ
    dof rx
    limits (0.0 90.0)
  end
  begin
     id 30
     name rthumb
     direction -0.707107 -6.34916e-011 0.707107   
     length 1.14711   
     axis -90 -45 3.53137e-014   XYZ
    dof rx rz
    limits (-45.0 45.0)
           (-45.0 45.0)
  end
:hierarchy
  begin
    root lhipjoint rhipjoint lowerback
    lhipjoint lfemur
    lfemur ltibia
    ltibia lfoot
    lfoot ltoes
    rhipjoint rfemur
    rfemur rtibia
    rtibia rfoot
    rfoot rtoes
    lowerback upperback
    upperback thorax
    thorax lowerneck lclavicle rclavicle
    lowerneck upperneck
    upperneck head
    lclavicle lhumerus
    lhumerus lradius
    lradius lwrist
    lwrist lhand lthumb
    lhand lfingers
    rclavicle rhumerus
    rhumerus rradius
    rradius rwrist
    rwrist rhand rthumb
    rhand rfingers
  end

#!OML:ASF H:\ManfredObstacles\Project 1\Capture day 1\Session 1\Male.ASF
:FULLY-SPECIFIED
:DEGREES
130
root -1.91221 15.9914 41.167 -171.308 0.878976 -179.103
lowerback -7.8272 0.243594 -0.255127
upperback 1.57856 0.4049 -0.799529
thorax 6.04756 0.208464 -0.638134
lowerneck 1.56789 -1.95305 -4.76671
upperneck -8.80724 -1.73521 9.03891
head -3.02988 -0.840368 3.94218
rclavicle 2.03754e-015 -2.38542e-015
rhumerus -36.9213 -25.7722 -76.7646
rradius 23.5231
rwrist 38.2542
rhand -1.94716 -5.28554
rfingers 7.12502
rthumb 23.7241 -33.8413
lclavicle 2.03754e-015 -2.38542e-015
lhumerus -33.5886 24.7251 71.4853
lradius 15.5276
lwrist -38.4431
lhand -7.57338 7.26851
lfingers 7.12502
lthumb 18.3193 36.4259
rfemur -1.225 -3.15777 23.3582
rtibia 19.5862
rfoot -17.7438 23.2464
rtoes 28.8409
lfemur -33.0255 -0.464806 -17.9471
ltibia 17.903
lfoot 4.95183 -2.92355
ltoes 8.47022
131
root -1.94569 15.9748 40.9593 -171.36 1.05455 -179.002
lowerback -8.33428 0.15641 -0.714887
upperback 1.64137 0.309174 -0.345157
thorax 6.39718 0.133103 0.0837703
lowerneck 1.50618 -1.81612 -5.23129
upperneck -8.79305 -1.61341 8.77724
head -3.02257 -0.764296 3.93499
rclavicle -1.59028e-015 7.95139e-015
rhumerus -36.4797 -25.0117 -76.5703
rradius 23.5218
rwrist 37.9136
rhand -1.96509 -5.25023
rfingers 7.12502
rthumb 23.7069 -33.8082
lclavicle -1.59028e-015 7.95139e-015
lhumerus -34.4137 27.3478 70.5666
lradius 15.0415
lwrist -40.5335
lhand -7.46275 7.39553
lfingers 7.12502
lthumb 18.4257 36.5429
rfemur -0.279371 -2.82803 23.2623
rtibia 19.4479
rfoot -17.4116 23.1789
rtoes 29.393
lfemur -32.2479 -0.38604 -18.0483
ltibia 17.6042
lfoot 5.26131 -4.0052
ltoes 5.42723
132
root -1.97938 15.9612 40.7413 -171.388 1.29388 -178.898
lowerback -8.9304 0.189218 -0.77271
upperback 1.68372 0.361179 -0.275084
thorax 6.78178 0.153308 0.199456
lowerneck 1.50095 -1.7599 -5.34834
upperneck -8.71355 -1.55795 8.74733
head -2.9989 -0.734984 3.94386
rclavicle -1.04362e-015 7.15625e-015
rhumerus -36.3322 -25.0248 -76.569
rradius 23.5641
rwrist 37.9498
rhand -1.86727 -5.3709
rfingers 7.12502
rthumb 23.8007 -33.9167
lclavicle -1.04362e-015 7.15625e-015
lhumerus -35.0418 28.7148 69.6008
lradius 14.7343
lwrist -41.7326
lhand -7.3777 7.61445
lfingers 7.12502
lthumb 18.5075 36.754
rfemur 0.718924 -2.29136 23.1676
rtibia 19.2002
rfoot -16.8784 22.9285
rtoes 29.015
lfemur -31.5841 -0.24864 -18.2142
ltibia 17.7863
lfoot 6.6304 -3.35301
ltoes 12.9893
133
root -2.01335 15.9584 40.5157 -171.446 1.4907 -178.706
lowerback -9.15815 0.215473 -0.88235
upperback 1.48124 0.397779 -0.0841564
thorax 6.69481 0.16404 0.46748
lowerneck 1.53839 -1.72678 -5.64367
upperneck -8.39369 -1.57031 8.78092
head -2.89578 -0.742842 4.00692
rclavicle -7.10655e-015 1.09332e-014
rhumerus -36.7352 -24.6071 -76.3547
rradius 23.8457
rwrist 37.628
rhand -1.76786 -5.38457
rfingers 7.12502
rthumb 23.896 -33.9179
lclavicle -7.10655e-015 1.09332e-014
lhumerus -36.118 29.9073 68.5874
lradius 14.4959
lwrist -42.7019
lhand -7.367 7.58499
lfingers 7.12502
lthumb 18.5178 36.7236
rfemur 1.71993 -1.5758 23.213
rtibia 19.0232
rfoot -16.5231 22.4036
rtoes 28.3147
lfemur -31.1349 0.308551 -18.4785
ltibia 18.3727
lfoot 7.96057 -4.12091
ltoes 15.5013
134
root -2.04981 15.9598 40.2917 -171.535 1.54668 -178.724
lowerback -9.46725 0.157879 -1.1767
upperback 1.42722 0.352369 0.0282627
thorax 6.8126 0.127935 0.746117
lowerneck 1.3609 -1.71387 -5.82555
upperneck -8.21231 -1.56914 8.81129
head -2.80044 -0.736023 4.04505
rclavicle -2.98177e-015 1.07344e-014
rhumerus -36.8823 -24.5405 -76.1592
rradius 24.0169
rwrist 37.6063
rhand -1.81814 -5.14972
rfingers 7.12502
rthumb 23.8478 -33.6893
lclavicle -2.98177e-015 1.07344e-014
lhumerus -36.9833 31.5812 67.4344
lradius 14.1591
lwrist -44.1825
lhand -7.44398 7.47832
lfingers 7.12502
lthumb 18.4438 36.6239
rfemur 2.56647 -0.988658 23.1097
rtibia 19.084
rfoot -16.3304 21.6003
rtoes 25.9748
lfemur -30.7144 0.923142 -18.9811
ltibia 19.1711
lfoot 7.59883 -4.49295
ltoes 14.2528
